<?xml version="1.0" encoding="UTF-8"?>
<svg width="603px" height="603px" viewBox="0 0 603 603" version="1.1" xmlns="http://www.w3.org/2000/svg" xmlns:xlink="http://www.w3.org/1999/xlink">
    <title>1</title>
    <g id="1" stroke="none" stroke-width="1" fill="none" fill-rule="evenodd">
        <g id="Group-5" transform="translate(0.460000, 1.192000)" fill="#E05459">
            <path d="M243.06,235.918 C243.06,257.637 225.45,275.242 203.74,275.242 C182.019,275.242 164.41,257.637 164.41,235.918 C164.41,214.201 182.019,196.595 203.74,196.595 C225.45,196.595 243.06,214.201 243.06,235.918" id="Fill-11"></path>
            <path d="M447.54,235.918 C447.54,257.637 429.94,275.242 408.22,275.242 C386.5,275.242 368.899,257.637 368.899,235.918 C368.899,214.201 386.5,196.595 408.22,196.595 C429.94,196.595 447.54,214.201 447.54,235.918" id="Fill-12"></path>
            <path d="M568.26,301.007 C568.26,448.374 448.37,568.268 301.01,568.268 C153.649,568.268 33.76,448.374 33.76,301.007 C33.76,153.646 153.649,33.758 301.01,33.758 C448.37,33.758 568.26,153.646 568.26,301.007 Z M301.01,0 C135.04,0 0,135.032 0,301.007 C0,466.988 135.04,602.028 301.01,602.028 C466.99,602.028 602.019,466.988 602.019,301.007 C602.019,135.032 466.99,0 301.01,0 L301.01,0 Z" id="Fill-13"></path>
            <path d="M301.01,305.289 C220.96,305.289 148.2,352.574 115.66,425.751 C111.88,434.25 115.72,444.246 124.24,448.037 C132.729,451.788 142.72,447.947 146.51,439.466 C173.63,378.464 234.28,339.047 301.01,339.047 C367.75,339.047 428.4,378.463 455.51,439.467 C458.22,445.555 464.28,449.489 470.95,449.489 C473.31,449.489 475.609,448.999 477.79,448.032 C486.29,444.247 490.14,434.253 486.36,425.753 C453.83,352.575 381.08,305.289 301.01,305.289" id="Fill-14"></path>
        </g>
    </g>
</svg>