<?xml version="1.0" encoding="UTF-8"?>
<svg width="603px" height="603px" viewBox="0 0 603 603" version="1.1" xmlns="http://www.w3.org/2000/svg" xmlns:xlink="http://www.w3.org/1999/xlink">
    <title>5</title>
    <g id="5" stroke="none" stroke-width="1" fill="none" fill-rule="evenodd">
        <g id="Group" transform="translate(0.421000, 0.192000)">
            <path d="M243.056,235.918 C243.056,257.637 225.45,275.242 203.731,275.242 C182.014,275.242 164.408,257.637 164.408,235.918 C164.408,214.201 182.014,196.595 203.731,196.595 C225.45,196.595 243.056,214.201 243.056,235.918" id="Fill-3" fill="#55B152"></path>
            <path d="M447.54,235.918 C447.54,257.637 429.934,275.242 408.216,275.242 C386.498,275.242 368.892,257.637 368.892,235.918 C368.892,214.201 386.498,196.595 408.216,196.595 C429.934,196.595 447.54,214.201 447.54,235.918" id="Fill-4" fill="#55B152"></path>
            <path d="M568.259,301.007 C568.259,448.374 448.368,568.268 301.006,568.268 C153.645,568.268 33.758,448.374 33.758,301.007 C33.758,153.646 153.645,33.758 301.006,33.758 C448.368,33.758 568.259,153.646 568.259,301.007 Z M301.006,0 C135.031,0 0,135.032 0,301.007 C0,466.988 135.031,602.028 301.006,602.028 C466.982,602.028 602.009,466.988 602.009,301.007 C602.009,135.032 466.982,0 301.006,0 L301.006,0 Z" id="Fill-5" fill="#54B050"></path>
            <path d="M425.973,368.655 C422.066,397.734 408.091,424.532 386.249,444.603 C362.911,466.049 332.638,477.858 301.006,477.858 C269.371,477.858 239.095,466.049 215.754,444.602 C193.912,424.532 179.937,397.735 176.03,368.655 L425.973,368.655 Z M141.154,351.776 C141.154,439.913 212.863,511.618 301.006,511.618 C389.144,511.618 460.85,439.913 460.85,351.776 L460.85,334.897 L141.154,334.897 L141.154,351.776 L141.154,351.776 Z" id="Fill-6" fill="#54B050"></path>
        </g>
    </g>
</svg>