<?xml version="1.0" encoding="UTF-8"?>
<svg width="603px" height="603px" viewBox="0 0 603 603" version="1.1" xmlns="http://www.w3.org/2000/svg" xmlns:xlink="http://www.w3.org/1999/xlink">
    <title>2</title>
    <g id="2" stroke="none" stroke-width="1" fill="none" fill-rule="evenodd">
        <g id="Group-4" transform="translate(-0.410000, 1.192000)" fill="#EA8A41">
            <path d="M243.07,235.918 C243.07,257.637 225.46,275.242 203.74,275.242 C182.03,275.242 164.42,257.637 164.42,235.918 C164.42,214.201 182.03,196.595 203.74,196.595 C225.46,196.595 243.07,214.201 243.07,235.918" id="Fill-21"></path>
            <path d="M447.55,235.918 C447.55,257.637 429.95,275.242 408.23,275.242 C386.51,275.242 368.9,257.637 368.9,235.918 C368.9,214.201 386.51,196.595 408.23,196.595 C429.95,196.595 447.55,214.201 447.55,235.918" id="Fill-22"></path>
            <path d="M568.27,301.007 C568.27,448.374 448.38,568.268 301.02,568.268 C153.65,568.268 33.76,448.374 33.76,301.007 C33.76,153.646 153.65,33.758 301.02,33.758 C448.38,33.758 568.27,153.646 568.27,301.007 Z M301.02,0 C135.04,0 0,135.032 0,301.007 C0,466.988 135.04,602.028 301.02,602.028 C467,602.028 602.03,466.988 602.03,301.007 C602.03,135.032 467,0 301.02,0 L301.02,0 Z" id="Fill-23"></path>
            <path d="M450.36,361.772 C406.02,343.659 359.31,333.83 311.54,332.561 C257.59,331.021 202.31,341.122 151.67,361.771 C143.06,365.286 138.91,375.153 142.42,383.763 C145.01,390.147 151.15,394.273 158.05,394.273 C160.26,394.273 162.41,393.848 164.42,393.017 C210.42,374.263 261.01,365.025 310.63,366.294 C354.29,367.453 397.01,376.443 437.6,393.011 C439.65,393.858 441.82,394.282 443.98,394.282 C446.19,394.282 448.41,393.839 450.52,392.954 C454.68,391.206 457.91,387.942 459.61,383.77 C461.31,379.598 461.29,375.012 459.54,370.858 C457.8,366.7 454.54,363.472 450.36,361.772" id="Fill-24"></path>
        </g>
    </g>
</svg>