<?xml version="1.0" encoding="UTF-8"?>
<svg width="603px" height="603px" viewBox="0 0 603 603" version="1.1" xmlns="http://www.w3.org/2000/svg" xmlns:xlink="http://www.w3.org/1999/xlink">
    <title>3</title>
    <g id="3" stroke="none" stroke-width="1" fill="none" fill-rule="evenodd">
        <g id="Group-3" transform="translate(0.080000, 1.192000)" fill="#F9C944">
            <path d="M203.74,275.242 C225.46,275.242 243.07,257.636 243.07,235.918 C243.07,214.201 225.46,196.594 203.74,196.594 C182.03,196.594 164.42,214.201 164.42,235.918 C164.42,257.636 182.03,275.242 203.74,275.242" id="Fill-39"></path>
            <path d="M408.23,275.242 C429.95,275.242 447.55,257.636 447.55,235.918 C447.55,214.201 429.95,196.594 408.23,196.594 C386.51,196.594 368.9,214.201 368.9,235.918 C368.9,257.636 386.51,275.242 408.23,275.242" id="Fill-40"></path>
            <path d="M301.02,568.268 C153.65,568.268 33.76,448.374 33.76,301.007 C33.76,153.646 153.65,33.758 301.02,33.758 C448.38,33.758 568.27,153.646 568.27,301.007 C568.27,448.374 448.38,568.268 301.02,568.268 Z M301.02,0 C135.04,0 0,135.032 0,301.007 C0,466.988 135.04,602.028 301.02,602.028 C467,602.028 602.03,466.988 602.03,301.007 C602.03,135.032 467,0 301.02,0 L301.02,0 Z" id="Fill-41"></path>
            <path d="M443.98,360.515 L158.05,360.515 C148.74,360.515 141.17,368.086 141.17,377.394 C141.17,386.701 148.74,394.273 158.05,394.273 L443.98,394.273 C453.29,394.273 460.86,386.701 460.86,377.394 C460.86,368.086 453.29,360.515 443.98,360.515" id="Fill-42"></path>
        </g>
    </g>
</svg>