<?xml version="1.0" encoding="UTF-8"?>
<svg width="603px" height="603px" viewBox="0 0 603 603" version="1.1" xmlns="http://www.w3.org/2000/svg" xmlns:xlink="http://www.w3.org/1999/xlink">
    <title>4</title>
    <g id="4" stroke="none" stroke-width="1" fill="none" fill-rule="evenodd">
        <g id="Group-2" transform="translate(-0.240000, 1.192000)" fill="#8CC581">
            <path d="M243.06,235.918 C243.06,257.637 225.45,275.242 203.74,275.242 C182.02,275.242 164.41,257.637 164.41,235.918 C164.41,214.201 182.02,196.595 203.74,196.595 C225.45,196.595 243.06,214.201 243.06,235.918" id="Fill-7"></path>
            <path d="M447.55,235.918 C447.55,257.637 429.94,275.242 408.22,275.242 C386.5,275.242 368.9,257.637 368.9,235.918 C368.9,214.201 386.5,196.595 408.22,196.595 C429.94,196.595 447.55,214.201 447.55,235.918" id="Fill-8"></path>
            <path d="M568.26,301.007 C568.26,448.374 448.38,568.268 301.01,568.268 C153.65,568.268 33.76,448.374 33.76,301.007 C33.76,153.646 153.65,33.758 301.01,33.758 C448.38,33.758 568.26,153.646 568.26,301.007 Z M301.01,0 C135.03,0 0,135.032 0,301.007 C0,466.988 135.03,602.028 301.01,602.028 C466.99,602.028 602.02,466.988 602.02,301.007 C602.02,135.032 466.99,0 301.01,0 L301.01,0 Z" id="Fill-9"></path>
            <path d="M477.78,345.012 C469.25,341.254 459.27,345.104 455.52,353.584 C428.39,414.586 367.74,454.003 301,454.003 C234.27,454.003 173.62,414.591 146.51,353.589 C144.67,349.469 141.35,346.31 137.14,344.692 C132.93,343.071 128.34,343.192 124.23,345.029 C115.73,348.814 111.89,358.807 115.67,367.307 C148.2,440.48 220.95,487.758 301,487.758 C381.07,487.758 453.82,440.477 486.36,367.299 C488.2,363.182 488.31,358.596 486.69,354.385 C485.07,350.177 481.91,346.851 477.78,345.012" id="Fill-10"></path>
        </g>
    </g>
</svg>